<?xml version="1.0" encoding="UTF-8" standalone="no"?>
<!-- Created with Inkscape (http://www.inkscape.org/) -->

<svg
   xmlns:dc="http://purl.org/dc/elements/1.1/"
   xmlns:cc="http://creativecommons.org/ns#"
   xmlns:rdf="http://www.w3.org/1999/02/22-rdf-syntax-ns#"
   xmlns:svg="http://www.w3.org/2000/svg"
   xmlns="http://www.w3.org/2000/svg"
   xmlns:xlink="http://www.w3.org/1999/xlink"
   xmlns:sodipodi="http://sodipodi.sourceforge.net/DTD/sodipodi-0.dtd"
   xmlns:inkscape="http://www.inkscape.org/namespaces/inkscape"
   width="1000.001"
   height="999.99591"
   id="svg3337"
   version="1.1"
   inkscape:version="0.48.4 r9939"
   sodipodi:docname="New document 2">
  <defs
     id="defs3339">
    <linearGradient
       id="SVGID_15_"
       gradientUnits="userSpaceOnUse"
       x1="620.14362"
       y1="728.59082"
       x2="594.43408"
       y2="684.06073"
       gradientTransform="translate(-132.05594,-330.63387)">
      <stop
         offset="0.0123"
         style="stop-color:#7F3F98"
         id="stop264" />
      <stop
         offset="1"
         style="stop-color:#000026"
         id="stop266" />
    </linearGradient>
    <linearGradient
       id="SVGID_14_"
       gradientUnits="userSpaceOnUse"
       x1="543.32617"
       y1="706.32178"
       x2="671.2583"
       y2="706.32178"
       gradientTransform="translate(-132.05594,-330.63387)">
      <stop
         offset="0.0123"
         style="stop-color:#7F3F98"
         id="stop257" />
      <stop
         offset="1"
         style="stop-color:#262262"
         id="stop259" />
    </linearGradient>
    <linearGradient
       id="SVGID_13_"
       gradientUnits="userSpaceOnUse"
       x1="173.0605"
       y1="655.53369"
       x2="570.72168"
       y2="655.53369"
       gradientTransform="translate(-132.05594,-330.63387)">
      <stop
         offset="0.0123"
         style="stop-color:#7F3F98"
         id="stop238" />
      <stop
         offset="0.0682"
         style="stop-color:#6B3687"
         id="stop240" />
      <stop
         offset="0.168"
         style="stop-color:#512B73"
         id="stop242" />
      <stop
         offset="0.2773"
         style="stop-color:#3C2163"
         id="stop244" />
      <stop
         offset="0.3978"
         style="stop-color:#2C1A58"
         id="stop246" />
      <stop
         offset="0.5353"
         style="stop-color:#201450"
         id="stop248" />
      <stop
         offset="0.7047"
         style="stop-color:#19104B"
         id="stop250" />
      <stop
         offset="1"
         style="stop-color:#170F4A"
         id="stop252" />
    </linearGradient>
    <linearGradient
       id="SVGID_12_"
       gradientUnits="userSpaceOnUse"
       x1="305.80371"
       y1="876.22223"
       x2="170.6675"
       y2="642.15942"
       gradientTransform="translate(-132.05594,-330.63387)">
      <stop
         offset="0.0123"
         style="stop-color:#7F3F98"
         id="stop219" />
      <stop
         offset="0.2384"
         style="stop-color:#7B3E94"
         id="stop221" />
      <stop
         offset="0.4124"
         style="stop-color:#723A8C"
         id="stop223" />
      <stop
         offset="0.5692"
         style="stop-color:#643382"
         id="stop225" />
      <stop
         offset="0.7157"
         style="stop-color:#512B73"
         id="stop227" />
      <stop
         offset="0.8551"
         style="stop-color:#392061"
         id="stop229" />
      <stop
         offset="0.9874"
         style="stop-color:#1A114C"
         id="stop231" />
      <stop
         offset="1"
         style="stop-color:#170F4A"
         id="stop233" />
    </linearGradient>
    <linearGradient
       id="SVGID_11_"
       gradientUnits="userSpaceOnUse"
       x1="374.1763"
       y1="880.0415"
       x2="220.2934"
       y2="613.50873"
       gradientTransform="translate(-132.05594,-330.63387)">
      <stop
         offset="0.0123"
         style="stop-color:#F9ED32"
         id="stop196" />
      <stop
         offset="0.0691"
         style="stop-color:#EDCF36"
         id="stop198" />
      <stop
         offset="0.1676"
         style="stop-color:#E0A736"
         id="stop200" />
      <stop
         offset="0.2707"
         style="stop-color:#D58635"
         id="stop202" />
      <stop
         offset="0.3762"
         style="stop-color:#CE6C33"
         id="stop204" />
      <stop
         offset="0.4848"
         style="stop-color:#C85531"
         id="stop206" />
      <stop
         offset="0.5975"
         style="stop-color:#C4402F"
         id="stop208" />
      <stop
         offset="0.7161"
         style="stop-color:#C12F2E"
         id="stop210" />
      <stop
         offset="0.8443"
         style="stop-color:#BF232D"
         id="stop212" />
      <stop
         offset="1"
         style="stop-color:#BE1E2D"
         id="stop214" />
    </linearGradient>
    <linearGradient
       id="SVGID_10_"
       gradientUnits="userSpaceOnUse"
       x1="170.3242"
       y1="755.18988"
       x2="606.48102"
       y2="755.18988"
       gradientTransform="translate(-132.05594,-330.63387)">
      <stop
         offset="0.0123"
         style="stop-color:#F9ED32"
         id="stop189" />
      <stop
         offset="1"
         style="stop-color:#BE1E2D"
         id="stop191" />
    </linearGradient>
    <linearGradient
       id="SVGID_9_"
       gradientUnits="userSpaceOnUse"
       x1="303.52341"
       y1="989.90527"
       x2="529.72168"
       y2="989.90527"
       gradientTransform="translate(-132.05594,-330.63387)">
      <stop
         offset="0.0123"
         style="stop-color:#7F3F98"
         id="stop118" />
      <stop
         offset="0.0682"
         style="stop-color:#6B3687"
         id="stop120" />
      <stop
         offset="0.168"
         style="stop-color:#512B73"
         id="stop122" />
      <stop
         offset="0.2773"
         style="stop-color:#3C2163"
         id="stop124" />
      <stop
         offset="0.3978"
         style="stop-color:#2C1A58"
         id="stop126" />
      <stop
         offset="0.5353"
         style="stop-color:#201450"
         id="stop128" />
      <stop
         offset="0.7047"
         style="stop-color:#19104B"
         id="stop130" />
      <stop
         offset="1"
         style="stop-color:#170F4A"
         id="stop132" />
    </linearGradient>
    <linearGradient
       id="SVGID_8_"
       gradientUnits="userSpaceOnUse"
       x1="170.3242"
       y1="868.71143"
       x2="836.64502"
       y2="868.71143"
       gradientTransform="translate(-132.05594,-330.63387)">
      <stop
         offset="0.0123"
         style="stop-color:#7F3F98"
         id="stop99" />
      <stop
         offset="0.2384"
         style="stop-color:#7B3E94"
         id="stop101" />
      <stop
         offset="0.4124"
         style="stop-color:#723A8C"
         id="stop103" />
      <stop
         offset="0.5692"
         style="stop-color:#643382"
         id="stop105" />
      <stop
         offset="0.7157"
         style="stop-color:#512B73"
         id="stop107" />
      <stop
         offset="0.8551"
         style="stop-color:#392061"
         id="stop109" />
      <stop
         offset="0.9874"
         style="stop-color:#1A114C"
         id="stop111" />
      <stop
         offset="1"
         style="stop-color:#170F4A"
         id="stop113" />
    </linearGradient>
    <linearGradient
       id="SVGID_7_"
       gradientUnits="userSpaceOnUse"
       x1="170.3242"
       y1="755.18988"
       x2="606.48102"
       y2="755.18988"
       gradientTransform="translate(-90.323999,-365.04741)">
      <stop
         offset="0.0123"
         style="stop-color:#7F3F98"
         id="stop80" />
      <stop
         offset="0.2384"
         style="stop-color:#7B3E94"
         id="stop82" />
      <stop
         offset="0.4124"
         style="stop-color:#723A8C"
         id="stop84" />
      <stop
         offset="0.5692"
         style="stop-color:#643382"
         id="stop86" />
      <stop
         offset="0.7157"
         style="stop-color:#512B73"
         id="stop88" />
      <stop
         offset="0.8551"
         style="stop-color:#392061"
         id="stop90" />
      <stop
         offset="0.9874"
         style="stop-color:#1A114C"
         id="stop92" />
      <stop
         offset="1"
         style="stop-color:#170F4A"
         id="stop94" />
    </linearGradient>
    <linearGradient
       y2="755.18988"
       x2="606.48102"
       y1="755.18988"
       x1="170.3242"
       gradientTransform="translate(-132.05594,-330.63387)"
       gradientUnits="userSpaceOnUse"
       id="linearGradient3335"
       xlink:href="#SVGID_7_"
       inkscape:collect="always" />
  </defs>
  <sodipodi:namedview
     id="base"
     pagecolor="#ffffff"
     bordercolor="#666666"
     borderopacity="1.0"
     inkscape:pageopacity="0.0"
     inkscape:pageshadow="2"
     inkscape:zoom="0.35"
     inkscape:cx="503.57196"
     inkscape:cy="505.71732"
     inkscape:document-units="px"
     inkscape:current-layer="layer1"
     showgrid="false"
     fit-margin-top="76.33"
     fit-margin-left="166.84"
     fit-margin-right="166.84"
     fit-margin-bottom="76.34"
     inkscape:window-width="1855"
     inkscape:window-height="1056"
     inkscape:window-x="65"
     inkscape:window-y="24"
     inkscape:window-maximized="1" />
  <metadata
     id="metadata3342">
    <rdf:RDF>
      <cc:Work
         rdf:about="">
        <dc:format>image/svg+xml</dc:format>
        <dc:type
           rdf:resource="http://purl.org/dc/dcmitype/StillImage" />
        <dc:title></dc:title>
      </cc:Work>
    </rdf:RDF>
  </metadata>
  <g
     inkscape:label="Layer 1"
     inkscape:groupmode="layer"
     id="layer1"
     transform="translate(128.57194,-38.083543)">
    <path
       d="m 38.268057,311.72413 c 0,0 257.923003,66.168 398.753003,24.842 0,0 3.297,42.438 37.403,48.027 0,0 -116.661,171.257 -359.812,151.153 0.001,0 -74.019003,-46.818 -76.344003,-224.022 z"
       id="path96"
       inkscape:connector-curvature="0"
       style="fill:url(#linearGradient3335)" />
    <path
       d="m 679.21706,418.14313 c 90.711,-167.888 -90.972,-273.229 -90.972,-273.229 -198.776,-102.477003 -380.834,86.125 -380.834,86.125 -71.135,83.017 -169.143003,83.017 -169.143003,83.017 l 11.168,21.399 c 38.988,9.418 267.137003,61.529 386.751003,21.381 0,0 4.786,39.265 37.142,43.083 0,0 -99.996,143.545 -301.598,154.398 38.845,28.233 121.607,53.377 121.607,53.377 20.597,27.294 -104.255,167.02803 -104.255,167.02803 l 53.609,5.255 c -45.484,101.221 -34.246,180.553 -34.246,180.553 43.064,14.091 186.788,-99.615 186.788,-99.615 l 41.625,43.3 27.9,-73.393 c 15.121,-41.538 45.211,-147.30303 142.696,-151.36103 32.494,-5.417 71.762,8.123 71.762,8.123 25.374,0 -32.862,-82.978 -32.862,-82.978 -50.582,-75.387 32.862,-186.463 32.862,-186.463 z"
       id="path115"
       inkscape:connector-curvature="0"
       style="fill:url(#SVGID_8_)" />
    <path
       d="m 293.33906,607.69613 c -63.19,-18.72 -126.475,-52.773 -121.607,-53.377 215.935,-27.038 224.312,6.685 224.312,6.685 0,0 33.781,51.731 -206.96,213.72103 -0.001,0 123.458,-138.22503 104.255,-167.02903 z"
       id="path134"
       inkscape:connector-curvature="0"
       style="opacity:0.25;fill:url(#SVGID_9_)" />
    <path
       d="m 38.268057,311.72413 c 0,0 257.923003,66.168 398.753003,24.842 0,0 3.297,42.438 37.403,48.027 0,0 -116.661,171.257 -359.812,151.153 0.001,0 -74.019003,-46.818 -76.344003,-224.022 z"
       id="path193"
       inkscape:connector-curvature="0"
       style="opacity:0.49000005;fill:url(#SVGID_10_)" />
    <path
       d="m 256.17206,347.44813 c -112.706,-8.744 -217.904003,-35.724 -217.904003,-35.724 2.325,177.205 76.345003,224.022 76.345003,224.022 85.767,7.089 155.776,-9.641 210.497,-34.254 -10.749,-8.356 -54.091,-48.039 -68.938,-154.044 z"
       id="path216"
       inkscape:connector-curvature="0"
       style="opacity:0.8;fill:url(#SVGID_11_)" />
    <path
       d="m 188.39306,535.74613 c 0,0 -69.524,-43.971 -75.931,-207.999 -44.599003,-8.433 -74.194003,-16.023 -74.194003,-16.023 2.325,177.209 76.345003,224.022 76.345003,224.022 26.851,2.225 52.157,2.107 75.929,0.145 -0.724,-0.055 -1.424,-0.084 -2.149,-0.145 z"
       id="path235"
       inkscape:connector-curvature="0"
       style="opacity:0.5;fill:url(#SVGID_12_)" />
    <path
       d="m 41.012057,312.40913 c 0,0 -2.169,9.366 66.449003,-12.095 0,0 165.389,56.672 331.204,27.769 l -13.638,12.541 c 0,0 -127.342,32.943 -384.015003,-28.215 z"
       id="path254"
       inkscape:connector-curvature="0"
       style="opacity:0.4;fill:url(#SVGID_13_)" />
    <path
       d="m 539.20206,375.69313 c 0,35.329 -28.643,63.959 -63.959,63.959 -35.342,0 -63.973,-28.63 -63.973,-63.959 0,-35.332 28.631,-63.969 63.973,-63.969 35.317,0 63.959,28.637 63.959,63.969 z"
       id="path261"
       inkscape:connector-curvature="0"
       style="fill:url(#SVGID_14_)" />
    <path
       d="m 500.93906,375.69313 c 0,14.192 -11.512,25.705 -25.701,25.705 -14.201,0 -25.71,-11.513 -25.71,-25.705 0,-14.199 11.51,-25.707 25.71,-25.707 14.189,0 25.701,11.508 25.701,25.707 z"
       id="path268"
       inkscape:connector-curvature="0"
       style="fill:url(#SVGID_15_)" />
  </g>
</svg>
